<mxfile host="app.diagrams.net" agent="Mozilla/5.0 (X11; Linux x86_64; rv:128.0) Gecko/20100101 Firefox/128.0" version="24.8.6">
  <diagram name="Page-1" id="wnyMBq5PCf8arWX9Li_c">
    <mxGraphModel>
      <root>
        <mxCell id="0" />
        <mxCell id="1" parent="0" />
        <mxCell id="2" value="+" style="whiteSpace=wrap;strokeWidth=2;" vertex="1" parent="1">
          <mxGeometry x="8" y="1031" width="60" height="30" as="geometry" />
        </mxCell>
        <mxCell id="3" value="-" style="whiteSpace=wrap;strokeWidth=2;" vertex="1" parent="1">
          <mxGeometry x="164" y="8" width="60" height="30" as="geometry" />
        </mxCell>
        <mxCell id="4" value="=" style="whiteSpace=wrap;strokeWidth=2;" vertex="1" parent="1">
          <mxGeometry x="160" y="88" width="69" height="49" as="geometry" />
        </mxCell>
        <mxCell id="5" value="*" style="whiteSpace=wrap;strokeWidth=2;" vertex="1" parent="1">
          <mxGeometry x="164" y="187" width="60" height="30" as="geometry" />
        </mxCell>
        <mxCell id="6" value="/" style="whiteSpace=wrap;strokeWidth=2;" vertex="1" parent="1">
          <mxGeometry x="162" y="267" width="64" height="49" as="geometry" />
        </mxCell>
        <mxCell id="7" value="%" style="whiteSpace=wrap;strokeWidth=2;" vertex="1" parent="1">
          <mxGeometry x="157" y="366" width="74" height="49" as="geometry" />
        </mxCell>
        <mxCell id="8" value="^" style="whiteSpace=wrap;strokeWidth=2;" vertex="1" parent="1">
          <mxGeometry x="161" y="465" width="68" height="49" as="geometry" />
        </mxCell>
        <mxCell id="9" value="&amp;" style="whiteSpace=wrap;strokeWidth=2;" vertex="1" parent="1">
          <mxGeometry x="141" y="564" width="106" height="49" as="geometry" />
        </mxCell>
        <mxCell id="10" value="|" style="whiteSpace=wrap;strokeWidth=2;" vertex="1" parent="1">
          <mxGeometry x="162" y="663" width="64" height="49" as="geometry" />
        </mxCell>
        <mxCell id="11" value="&amp;lt;&amp;lt;" style="whiteSpace=wrap;strokeWidth=2;" vertex="1" parent="1">
          <mxGeometry x="141" y="762" width="106" height="49" as="geometry" />
        </mxCell>
        <mxCell id="12" value="&gt;&gt;" style="whiteSpace=wrap;strokeWidth=2;" vertex="1" parent="1">
          <mxGeometry x="164" y="861" width="60" height="30" as="geometry" />
        </mxCell>
        <mxCell id="13" value="&gt;&gt;&gt;" style="whiteSpace=wrap;strokeWidth=2;" vertex="1" parent="1">
          <mxGeometry x="164" y="941" width="60" height="30" as="geometry" />
        </mxCell>
        <mxCell id="14" value="~" style="whiteSpace=wrap;strokeWidth=2;" vertex="1" parent="1">
          <mxGeometry x="160" y="1021" width="69" height="49" as="geometry" />
        </mxCell>
        <mxCell id="15" value="!" style="whiteSpace=wrap;strokeWidth=2;" vertex="1" parent="1">
          <mxGeometry x="162" y="1120" width="64" height="49" as="geometry" />
        </mxCell>
        <mxCell id="16" value="&amp;lt;" style="whiteSpace=wrap;strokeWidth=2;" vertex="1" parent="1">
          <mxGeometry x="153" y="1219" width="83" height="49" as="geometry" />
        </mxCell>
        <mxCell id="17" value="&gt;" style="whiteSpace=wrap;strokeWidth=2;" vertex="1" parent="1">
          <mxGeometry x="164" y="1318" width="60" height="30" as="geometry" />
        </mxCell>
        <mxCell id="18" value="&amp;lt;=" style="whiteSpace=wrap;strokeWidth=2;" vertex="1" parent="1">
          <mxGeometry x="148" y="1398" width="92" height="49" as="geometry" />
        </mxCell>
        <mxCell id="19" value="&gt;=" style="whiteSpace=wrap;strokeWidth=2;" vertex="1" parent="1">
          <mxGeometry x="164" y="1497" width="60" height="30" as="geometry" />
        </mxCell>
        <mxCell id="20" value="==" style="whiteSpace=wrap;strokeWidth=2;" vertex="1" parent="1">
          <mxGeometry x="155" y="1577" width="79" height="49" as="geometry" />
        </mxCell>
        <mxCell id="21" value="!=" style="whiteSpace=wrap;strokeWidth=2;" vertex="1" parent="1">
          <mxGeometry x="157" y="1676" width="74" height="49" as="geometry" />
        </mxCell>
        <mxCell id="22" value="&amp;&amp;" style="whiteSpace=wrap;strokeWidth=2;" vertex="1" parent="1">
          <mxGeometry x="118" y="1775" width="153" height="49" as="geometry" />
        </mxCell>
        <mxCell id="23" value="||" style="whiteSpace=wrap;strokeWidth=2;" vertex="1" parent="1">
          <mxGeometry x="160" y="1874" width="68" height="49" as="geometry" />
        </mxCell>
        <mxCell id="24" value="??" style="whiteSpace=wrap;strokeWidth=2;" vertex="1" parent="1">
          <mxGeometry x="155" y="1973" width="78" height="49" as="geometry" />
        </mxCell>
        <mxCell id="25" value="matches" style="whiteSpace=wrap;strokeWidth=2;" vertex="1" parent="1">
          <mxGeometry x="134" y="2072" width="120" height="49" as="geometry" />
        </mxCell>
        <mxCell id="26" value="" style="curved=1;startArrow=none;endArrow=block;exitX=0.51;exitY=-0.02;entryX=0;entryY=0.5;" edge="1" parent="1" source="2" target="3">
          <mxGeometry relative="1" as="geometry">
            <Array as="points">
              <mxPoint x="93" y="23" />
            </Array>
          </mxGeometry>
        </mxCell>
        <mxCell id="27" value="" style="curved=1;startArrow=none;endArrow=block;exitX=0.51;exitY=-0.02;entryX=-0.01;entryY=0.5;" edge="1" parent="1" source="2" target="4">
          <mxGeometry relative="1" as="geometry">
            <Array as="points">
              <mxPoint x="93" y="113" />
            </Array>
          </mxGeometry>
        </mxCell>
        <mxCell id="28" value="" style="curved=1;startArrow=none;endArrow=block;exitX=0.52;exitY=-0.02;entryX=0;entryY=0.5;" edge="1" parent="1" source="2" target="5">
          <mxGeometry relative="1" as="geometry">
            <Array as="points">
              <mxPoint x="93" y="202" />
            </Array>
          </mxGeometry>
        </mxCell>
        <mxCell id="29" value="" style="curved=1;startArrow=none;endArrow=block;exitX=0.52;exitY=-0.02;entryX=0;entryY=0.5;" edge="1" parent="1" source="2" target="6">
          <mxGeometry relative="1" as="geometry">
            <Array as="points">
              <mxPoint x="93" y="292" />
            </Array>
          </mxGeometry>
        </mxCell>
        <mxCell id="30" value="" style="curved=1;startArrow=none;endArrow=block;exitX=0.52;exitY=-0.02;entryX=0;entryY=0.5;" edge="1" parent="1" source="2" target="7">
          <mxGeometry relative="1" as="geometry">
            <Array as="points">
              <mxPoint x="93" y="391" />
            </Array>
          </mxGeometry>
        </mxCell>
        <mxCell id="31" value="" style="curved=1;startArrow=none;endArrow=block;exitX=0.52;exitY=-0.02;entryX=-0.01;entryY=0.5;" edge="1" parent="1" source="2" target="8">
          <mxGeometry relative="1" as="geometry">
            <Array as="points">
              <mxPoint x="93" y="490" />
            </Array>
          </mxGeometry>
        </mxCell>
        <mxCell id="32" value="" style="curved=1;startArrow=none;endArrow=block;exitX=0.53;exitY=-0.02;entryX=0;entryY=0.5;" edge="1" parent="1" source="2" target="9">
          <mxGeometry relative="1" as="geometry">
            <Array as="points">
              <mxPoint x="93" y="589" />
            </Array>
          </mxGeometry>
        </mxCell>
        <mxCell id="33" value="" style="curved=1;startArrow=none;endArrow=block;exitX=0.54;exitY=-0.02;entryX=0;entryY=0.5;" edge="1" parent="1" source="2" target="10">
          <mxGeometry relative="1" as="geometry">
            <Array as="points">
              <mxPoint x="93" y="688" />
            </Array>
          </mxGeometry>
        </mxCell>
        <mxCell id="34" value="" style="curved=1;startArrow=none;endArrow=block;exitX=0.55;exitY=-0.02;entryX=0;entryY=0.5;" edge="1" parent="1" source="2" target="11">
          <mxGeometry relative="1" as="geometry">
            <Array as="points">
              <mxPoint x="93" y="787" />
            </Array>
          </mxGeometry>
        </mxCell>
        <mxCell id="35" value="" style="curved=1;startArrow=none;endArrow=block;exitX=0.58;exitY=-0.02;entryX=0;entryY=0.5;" edge="1" parent="1" source="2" target="12">
          <mxGeometry relative="1" as="geometry">
            <Array as="points">
              <mxPoint x="93" y="876" />
            </Array>
          </mxGeometry>
        </mxCell>
        <mxCell id="36" value="" style="curved=1;startArrow=none;endArrow=block;exitX=0.65;exitY=-0.02;entryX=0;entryY=0.5;" edge="1" parent="1" source="2" target="13">
          <mxGeometry relative="1" as="geometry">
            <Array as="points">
              <mxPoint x="93" y="956" />
            </Array>
          </mxGeometry>
        </mxCell>
        <mxCell id="37" value="" style="curved=1;startArrow=none;endArrow=block;exitX=1;exitY=0.48;entryX=-0.01;entryY=0.5;" edge="1" parent="1" source="2" target="14">
          <mxGeometry relative="1" as="geometry">
            <Array as="points" />
          </mxGeometry>
        </mxCell>
        <mxCell id="38" value="" style="curved=1;startArrow=none;endArrow=block;exitX=0.64;exitY=0.98;entryX=0;entryY=0.5;" edge="1" parent="1" source="2" target="15">
          <mxGeometry relative="1" as="geometry">
            <Array as="points">
              <mxPoint x="93" y="1145" />
            </Array>
          </mxGeometry>
        </mxCell>
        <mxCell id="39" value="" style="curved=1;startArrow=none;endArrow=block;exitX=0.57;exitY=0.98;entryX=0;entryY=0.5;" edge="1" parent="1" source="2" target="16">
          <mxGeometry relative="1" as="geometry">
            <Array as="points">
              <mxPoint x="93" y="1244" />
            </Array>
          </mxGeometry>
        </mxCell>
        <mxCell id="40" value="" style="curved=1;startArrow=none;endArrow=block;exitX=0.55;exitY=0.98;entryX=0;entryY=0.5;" edge="1" parent="1" source="2" target="17">
          <mxGeometry relative="1" as="geometry">
            <Array as="points">
              <mxPoint x="93" y="1333" />
            </Array>
          </mxGeometry>
        </mxCell>
        <mxCell id="41" value="" style="curved=1;startArrow=none;endArrow=block;exitX=0.54;exitY=0.98;entryX=0;entryY=0.5;" edge="1" parent="1" source="2" target="18">
          <mxGeometry relative="1" as="geometry">
            <Array as="points">
              <mxPoint x="93" y="1423" />
            </Array>
          </mxGeometry>
        </mxCell>
        <mxCell id="42" value="" style="curved=1;startArrow=none;endArrow=block;exitX=0.53;exitY=0.98;entryX=0;entryY=0.5;" edge="1" parent="1" source="2" target="19">
          <mxGeometry relative="1" as="geometry">
            <Array as="points">
              <mxPoint x="93" y="1512" />
            </Array>
          </mxGeometry>
        </mxCell>
        <mxCell id="43" value="" style="curved=1;startArrow=none;endArrow=block;exitX=0.52;exitY=0.98;entryX=0;entryY=0.5;" edge="1" parent="1" source="2" target="20">
          <mxGeometry relative="1" as="geometry">
            <Array as="points">
              <mxPoint x="93" y="1602" />
            </Array>
          </mxGeometry>
        </mxCell>
        <mxCell id="44" value="" style="curved=1;startArrow=none;endArrow=block;exitX=0.52;exitY=0.98;entryX=0;entryY=0.5;" edge="1" parent="1" source="2" target="21">
          <mxGeometry relative="1" as="geometry">
            <Array as="points">
              <mxPoint x="93" y="1701" />
            </Array>
          </mxGeometry>
        </mxCell>
        <mxCell id="45" value="" style="curved=1;startArrow=none;endArrow=block;exitX=0.52;exitY=0.98;entryX=0;entryY=0.5;" edge="1" parent="1" source="2" target="22">
          <mxGeometry relative="1" as="geometry">
            <Array as="points">
              <mxPoint x="93" y="1800" />
            </Array>
          </mxGeometry>
        </mxCell>
        <mxCell id="46" value="" style="curved=1;startArrow=none;endArrow=block;exitX=0.52;exitY=0.98;entryX=0;entryY=0.5;" edge="1" parent="1" source="2" target="23">
          <mxGeometry relative="1" as="geometry">
            <Array as="points">
              <mxPoint x="93" y="1899" />
            </Array>
          </mxGeometry>
        </mxCell>
        <mxCell id="47" value="" style="curved=1;startArrow=none;endArrow=block;exitX=0.51;exitY=0.98;entryX=0;entryY=0.5;" edge="1" parent="1" source="2" target="24">
          <mxGeometry relative="1" as="geometry">
            <Array as="points">
              <mxPoint x="93" y="1998" />
            </Array>
          </mxGeometry>
        </mxCell>
        <mxCell id="48" value="" style="curved=1;startArrow=none;endArrow=block;exitX=0.51;exitY=0.98;entryX=0;entryY=0.5;" edge="1" parent="1" source="2" target="25">
          <mxGeometry relative="1" as="geometry">
            <Array as="points">
              <mxPoint x="93" y="2097" />
            </Array>
          </mxGeometry>
        </mxCell>
      </root>
    </mxGraphModel>
  </diagram>
</mxfile>
